<svg xmlns="http://www.w3.org/2000/svg" xmlns:xlink="http://www.w3.org/1999/xlink" xmlns:v="https://vecta.io/nano" viewBox="0 0 550 530"><style><![CDATA[.D{fill-opacity:.05}]]></style><path d="M98.5 155.2c.3.5 1 .6 1.4.4.5-.3.6-1 .4-1.4-.3-.5-.9-.7-1.4-.4s-.7.9-.4 1.4zm28.5-15.7c.4.7 1.1.8 1.4.3.4-.6.4-1.4.1-2-.3-.5-.8-.6-1.4-.3-.5.3-.5 1.2-.1 2zm110.7-64.8c.3.5 1.1.9 1.8.9s.9-.6.4-1.3c-.5-.8-1.2-1.2-1.8-.9-.4.2-.6.9-.4 1.3zM266 58.5c.3.5 1 .6 1.4.4.5-.3.6-1 .4-1.4-.3-.5-.9-.7-1.4-.4-.5.2-.7.9-.4 1.4zm-111.5 65.6c.3.5 1.2.5 1.9.1s1.1-1.2.8-1.7-1.2-.5-1.9-.1c-.6.4-1.1 1.1-.8 1.7zm28.3-16.3c.3.5 1 .6 1.4.4.5-.3.6-1 .4-1.4-.3-.5-.9-.7-1.4-.4-.5.2-.7.8-.4 1.4zM210.1 92c.3.5 1.2.5 1.9.1s1.1-1.2.8-1.7-1.2-.5-1.9-.1-1.1 1.2-.8 1.7zm-93.4 74.7c-.4 4.2 4.2 7.2 7.8 5.1 1.3-.7 2.2-2.5 2.3-4.4.2-2.9-.1-3.2-2.6-4.6-3.4-1.7-7.1.1-7.5 3.9zm29.2-16.8c-.4 3.7.3 4.8 3.4 5.4 5.2 1.2 8.3-2.9 5.7-7.3-2.6-4.6-8.6-3.3-9.1 1.9zm29-16.9c-1.3 5.8 6.2 8.3 9.5 3 2.5-3.9-3.2-9.1-7.3-6.7-.9.5-1.9 2.2-2.2 3.7zm29-17.2c-1.2 4.4 3.6 8.1 7.5 5.9 2.2-1.3 3.2-5 2-7.1-1.2-2-5.4-3.1-7.5-1.9-.8.4-1.8 1.8-2 3.1zm28.5-17c-.3 1 .2 2.8.9 4.1 1.7 2.9 4.2 3.7 6.7 2.2 2.3-1.3 3.5-5.5 2.3-7.6-1.9-3.3-8.9-2.5-9.9 1.3zm29.1-15.2c-.2 2.9.1 3.2 2.6 4.6 1.7.8 3.7.9 5 .1 1.4-.8 2.3-2.5 2.4-4.4.2-2.9-.1-3.2-2.6-4.6-1.7-.8-3.7-.9-5-.1-1.3.7-2.3 2.5-2.4 4.4zM94.6 184.9c-.2.6.2 1.8.7 2.7.7 1.2 1.6 1.3 3.3.3 1.9-1.1 2.1-1.7.8-3.2-1.4-1.9-4.2-1.7-4.8.2zM292.2 70.8c-.2.6.2 1.8.7 2.7.7 1.2 1.6 1.3 3.3.3 1.9-1.1 2.1-1.7.8-3.2-1.4-1.8-4.2-1.7-4.8.2zM115.7 197.2c-.5.6-.8 2.4-.5 3.9 1.1 6.5 10.7 6.2 11.3-.3.3-3.8-.5-5.1-3.9-6-2.9-.8-5.2 0-6.9 2.4zm28.4-14.3c-.3 6.4 7.1 9 10.8 3.8 3.6-5.1-2.5-11.7-8-8.5-1.8 1.1-2.7 2.6-2.8 4.7zm29.2-17.2c-.4 4.1 1 6 5 6.4 5.4.9 8.8-4.3 6.2-8.9-2.7-4.6-10.8-2.7-11.2 2.5zm29.1-16.4c-.2 3.9 1.4 5.6 5.6 6.1 3 .3 3.7.1 5-1.9 1.9-3 2-4.7.6-7.1-2.8-4.8-10.9-2.6-11.2 2.9zm29.1-16.8c-.2 4.1 2.5 6.8 6.5 6.4 2.6-.3 3.2-.8 4.4-3.4 1.7-3.9 1-6.1-2.5-7.9-3.8-1.9-8.2.6-8.4 4.9zm29.2-17.2c-.4 3.7.9 5.7 3.9 6.4 5.7 1.2 10.1-4 7.3-8.7-2.7-4.8-10.8-3.1-11.2 2.3zM290 98.1c-.9 3.4-.3 4.8 3.2 6.4 4.8 2.3 10.4-3.9 7.6-8.7-1.1-1.8-6.2-2.8-8.2-1.7-1 .6-2.1 2.4-2.6 4zM95.2 217.5c-.5 1.7 1.5 4.1 3.1 3.8 2.5-.3 2.7-3.9.4-4.8-2.2-.8-3.2-.6-3.5 1zM320.8 88.2c-.3 1.6 0 2.2 1.5 2.6 2.5 1 4.2-1.5 2.6-3.5-1.8-2.2-3.6-1.8-4.1.9zM144.9 213.8c-2.4 4-.9 8.2 3.3 9 6.9 1.5 11-8.1 4.9-11.3-2.3-1.2-6.8 0-8.2 2.3zm28.2-15.5c-1.5 5.5 4 9.8 8.7 7.1 2.5-1.5 3.9-6.4 2.5-8.7-.6-1-2.3-2.2-3.9-2.6s-3.7-.3-4.7.3-2.1 2.3-2.6 3.9z" class="D"></path><use xlink:href="#C" class="D"></use><path d="M231.4 164.7c-.4 1.6-.3 3.7.3 4.7 1.3 2.3 6.2 3.7 8.4 2.4 2.6-1.5 4.1-5.9 2.7-8.4-1.5-2.6-6.3-4.1-8.8-2.7-1 .6-2.2 2.4-2.6 4zm29.4-17.9c-.5 1.1-.4 3.3.1 4.8 1.6 5.5 10.3 5.1 11.6-.6.8-3.5-1.1-6.4-4.6-7.3-3.4-.9-5.9.2-7.1 3.1zm30.3-17.5c-2.1 2.5-2.3 4.4-.8 7 2.5 4.3 10.2 2.8 11.3-2.1 1.3-6.4-6.4-10-10.5-4.9zm-176 104.2c-.4 6.1 7.5 8.3 10.7 3.2 1.8-3 .8-6.3-2.4-7.9-3.7-1.9-8.1.6-8.3 4.7zM319 115.9c-.1 1.7.5 3.6 1.5 4.6 3.8 3.5 10.5 0 10-5.2-.5-6.8-11.1-6.3-11.5.6zM95.5 251c-.5 2.3 1.4 3.5 3.7 2.1 2-1.2 1.8-3.8-.5-4.4-2.2-.6-2.8-.1-3.2 2.3zm253.3-147.2c-.6 2.1 1.6 4.3 3.4 3.3 2.4-1.4 2.4-3.4.1-4.3-2.2-.7-3.1-.5-3.5 1zM199 212.3c-1.4 6.3 6.5 10.6 9.8 5.4 2.7-4.4 1.6-7.8-3-9-3.6-1-6.1.3-6.8 3.6zm30.1-16.4c-.1 3 .2 3.4 2.6 4.9 2.1 1.2 3.4 1.2 5.8-.2 2.5-1.4 3.1-2.5 3.1-4.9-.1-2.9-.3-3.3-3-4.7-2-1-3.7-1-5.6.1-1.9 1-2.7 2.5-2.9 4.8zm31.3-18.8c-1.2 4.6 1.2 7.3 6.3 7.2 6.3-.2 6.3-9.9.1-11.2-3.4-.8-5.5.5-6.4 4zm-88.6 54.7c-.4 1.6-.3 3.7.3 4.7 1.4 2.5 6.3 3.6 8.9 2.2 2.6-1.5 3.7-5.6 2.1-8.3-1.5-2.5-6.4-3.9-8.7-2.5-1 .6-2.1 2.4-2.6 3.9zm118.4-68.3c-1.5 5.5 4 9.8 8.7 7.1 2.5-1.5 3.9-6.4 2.5-8.7-.6-1-2.3-2.2-3.9-2.6s-3.7-.3-4.7.3-2.2 2.3-2.6 3.9zm-146 85.5c-.4 1.6-.3 3.7.3 4.7 1.5 2.5 6.3 3.6 9 2.1 2.5-1.4 3.4-5.9 1.8-8.6-1.3-2.2-6.2-3.4-8.5-2.1-1.1.6-2.2 2.4-2.6 3.9zM319 148.1c-.4 1.6-.3 3.7.3 4.7s2.3 2.2 3.9 2.6 3.7.3 4.7-.3 2.2-2.3 2.6-3.9.3-3.7-.3-4.7-2.3-2.2-3.9-2.6-3.7-.3-4.7.3c-1.1.6-2.2 2.3-2.6 3.9zM115.3 267.4c-.4 5.8 7.7 8.1 10.8 3 1.7-2.8.6-6.1-2.5-7.7-3.8-1.9-8.1.6-8.3 4.7zm233.1-134.6c-.4 5.7 6.3 8.2 10.3 3.9 4.1-4.5-2.1-11.6-7.4-8.5-1.9 1.1-2.9 2.7-2.9 4.6z" class="D"></path><path d="M95.5 283.8c.1 1 .9 2 1.8 2.2 2.2.6 4.1-2.2 2.6-3.8-1.5-1.9-4.8-.7-4.4 1.6zm281.3-162.4c.1 1 .9 2 1.8 2.2 2.2.6 4.1-2.2 2.6-3.8-1.5-1.9-4.7-.7-4.4 1.6zM226.7 225.5c-1.2 2.1 1.5 4.7 3.6 3.5 1.3-.7 1.5-1.7.6-3.2-1.4-2.5-3-2.5-4.2-.3zm35.1-19.5c.4 2.6 2.8 4.1 4.4 2.7 1.8-1.5.7-5-1.6-5-2.4-.2-3.1.4-2.8 2.3zm-65.4 42c-.9 4.1 3 7.3 6.6 5.6 3.6-1.6 4.5-4.2 2.6-7.5-2.4-4.2-8.2-3-9.2 1.9zm96.3-56.7c-1.4 2.2 1.1 6.9 3.7 7.3 6.2 1 8.8-8.1 2.8-10-2.9-.9-5-.1-6.5 2.7zM172 265.7c-1 3.6.9 7 4.2 7.7 3.5.8 6.4-1.1 7.3-4.6 1-3.7-.6-6.2-4.4-7.2-3.9-.8-6.1.4-7.1 4.1zm148.1-85.3c-1.6 3.8-.3 6.5 3.6 7.5 3.6 1 7-.9 7.7-4.2.8-3.5-1.1-6.4-4.6-7.3-3.6-1-5.1-.1-6.7 4zM115.6 298c-1.8 2.2-.3 6.6 2.6 8.1 6 3 11.4-5.3 6.2-9.4-2.9-2.4-6.4-1.9-8.8 1.3zm28.4-14.3c-.4 6.5 7.3 9.4 11 4.2 3.6-5.1-2.7-12-8.2-8.9-1.7 1.1-2.7 2.6-2.8 4.7zM348 166c-.4 6.4 7.4 9.2 11.2 4 3.6-5-2.9-11.8-8.3-8.7-1.9 1-2.8 2.6-2.9 4.7zm29.8-19.4c-1.8 2.2-.3 6.6 2.6 8.1 6 3 11.4-5.3 6.2-9.4-2.9-2.4-6.4-1.8-8.8 1.3zM95.1 316.9c.1.9 1 1.9 1.8 2.1 2.3.6 3.9-2 2.7-4.2-1.3-2.1-4.9-.5-4.5 2.1zm310.7-178.6c1 1.3 2.1 1.6 3.3.9 2.7-1.6.4-5-2.5-3.8-2 .8-2.1 1.2-.8 2.9zM223.4 267.1c-.3 1.1 1.4 2.1 2.5 1.4.5-.3.5-1.1 0-1.8-.7-1.3-2.1-1.1-2.5.4zm77.2-43.5c.5.8 1.2 1.1 1.7.6.4-.5.6-1.3.3-1.8s-1-.7-1.7-.6c-.6.2-.7 1-.3 1.8z" class="D"></path><path d="M172.2 299.6c-1.5 5.5 4 9.8 8.7 7.1 2.3-1.3 3.9-6.3 2.8-8.3-1.1-1.8-7.5-3.6-9.3-2.5-.8.5-1.8 2.2-2.2 3.7zm24.3-14.7c-.5 3.5 2.7 6.8 6.2 6.1 2.5-.5 3.1-1.1 3.8-3.7s.5-3.4-1.5-5.1c-1.7-1.5-3.1-1.7-5.3-.7-1.7.8-3 2.2-3.2 3.4zm127.8-72.4c.5 5.2 6.5 6.8 9.5 2.5 1.9-2.7.2-7.2-2.9-8-3.2-.8-6.9 2.3-6.6 5.5zm25.1-14.6c-1 3.9.7 6.7 4.7 7.3 7.6 1.1 9.3-9.7 2-11.7-3.9-1.1-5.5.1-6.7 4.4zm-233.7 134c-.5.6-.8 2.4-.5 3.9 1.1 6.5 10.7 6.2 11.3-.4.3-3.8-.5-5.1-3.9-6-2.9-.7-5.1.1-6.9 2.5zm28.4-15.1c-.7 3.3 1 6.1 4 6.8 5.3 1.2 9.8-4.5 7.2-9-2.5-4.3-10.2-2.7-11.2 2.2zm233-134.5c-.7 3.3 1 6.1 4 6.8 5.3 1.2 9.8-4.5 7.2-9-2.4-4.3-10.1-2.8-11.2 2.2zm29.5-16.7c-.8 2.9.8 5.4 4.3 6.8 2.7 1 6.7-2.1 7-5.1.3-3.8-.5-5.1-3.9-6-3.8-1-6.4.6-7.4 4.3zM95 349.5c.1.9 1.1 1.8 2.2 2 1.6.3 2.1-.1 2.7-1.9.3-1.2 0-2.5-.6-2.9-1.8-.9-4.7 1-4.3 2.8zm338.2-195.6c0 .7 1 1.6 2.3 1.9 2.2.6 2.3.5 2.9-1.7.7-2.7-1-4-3.5-2.6-.8.5-1.6 1.6-1.7 2.4zM144.7 348.3c-3.7 4.7 3 11.6 8.2 8.6 4.8-2.8 3.8-9.7-1.6-11.2-3.1-.9-4.2-.4-6.6 2.6zm28.5-15.7c-2.3 4.8 3.8 10.4 8.6 7.7 2.4-1.4 3.5-4.4 2.9-7.4-.5-1.8-1.6-2.6-4.3-3.4-4.2-1.1-5.5-.6-7.2 3.1zm204.6-117.1c-.6 2.7-.5 4 .8 5.4 3.7 3.5 9.5 2.1 10.4-2.5.8-3.6-1.7-7.3-5-7.6-3.9-.4-5.1.6-6.2 4.7zm28.7-17.1c-1.1 3.6-.1 5.8 3.6 7.4 5 2.3 10.3-4 7.5-8.9-2.6-4.4-9.6-3.4-11.1 1.5zM116.8 366.8c-.5 2.2-.2 3.3 1.7 4.8 4.2 3.7 10.6-1.4 7.8-6.2-2.5-4.4-8.4-3.6-9.5 1.4zm82.1-47.6c-1.1 5.4 3.7 9.1 8.3 6.4 4.7-2.7 3.7-9.3-1.5-10.4-3.4-.8-6.2.9-6.8 4zm153.8-88.8c-1.1 5.4 3.7 9.1 8.3 6.4 4.7-2.7 3.7-9.3-1.5-10.4-3.4-.8-6.1.9-6.8 4zm82.7-48c-.8 2.8 1.1 6.4 3.7 6.8 3.4.6 6.8-2.8 6.2-6.1-1.2-5.5-8.6-6-9.9-.7zm-337 198.7c.5.3 1.4.4 2 .1.5-.3.6-.9.3-1.4s-1.2-.5-2-.1c-.7.4-.9 1-.3 1.4zm128.2-73.4c-.5 2.6 1.8 4.4 4.1 3.1 2.1-1.2 1.7-4.4-.6-5.2-2.4-.9-3.2-.4-3.5 2.1zm105.6-61.1c-.4 2.4 2.1 4.3 4.2 3.1 2.3-1.3 1.8-4.2-.6-5.1s-3.2-.5-3.6 2zm129-75c.3.5.9.7 1.3.4.5-.3.9-1.1.9-1.8s-.6-.9-1.3-.4c-.8.5-1.2 1.3-.9 1.8z" class="D"></path><use xlink:href="#C" x="-28.9" y="185.4" class="D"></use><path d="M202.5 349.6c-1.5 3.1.7 7.4 4.2 8.1 7.5 1.6 10.6-8.4 3.4-11.2-3.8-1.5-5.9-.6-7.6 3.1zm175.3-99.8c-.9 5.4 4.3 8.8 8.9 6.2 4.6-2.7 2.8-10.7-2.5-11.2-4.1-.5-6 .9-6.4 5zm28.6-17.4c-.4 1.6-.3 3.7.3 4.7s2.3 2.2 3.9 2.6 3.7.3 4.7-.3 2.2-2.3 2.6-3.9.3-3.7-.3-4.7-2.3-2.2-3.9-2.6-3.7-.3-4.7.3c-1 .5-2.1 2.3-2.6 3.9zM145.7 384.6c.4 3.6 2.3 5.1 6 4.8 2.4-.3 3-.7 3.7-3 1.7-5.2-2.6-8.8-7.4-6.1-1.7 1.1-2.5 2.3-2.3 4.3zm289.2-168.5c-.7 2.6 1.4 5.6 4.3 6.1 3.3.7 5.2-.5 5.9-3.5 1.2-5.2-2.9-8.3-7.3-5.7-1.3.8-2.6 2.1-2.9 3.1zM126.3 396.4c1 1 2.5.5 1.9-.6-.2-.4-.9-.6-1.6-.5s-.9.7-.3 1.1zm103-57.7c-.1 2.3.4 3.4 2 4.8 4.4 3.6 10.9-.9 9.3-6.4-1.7-5.9-10.9-4.5-11.3 1.6zm123.8-71.3c-.3 3.5 2.2 6 5.6 6 6.1-.2 8-8.2 2.6-10.8-3.6-2-8 .6-8.2 4.8zm107.6-64.1c0 1.3 2 1.6 2.5.3.3-1.3-.6-2.5-1.5-1.9-.6.3-.9 1-1 1.6zM261.8 328.5c-.2 1.5.2 2 1.9 2.5 2.9.8 4.8-1.7 3-3.9-1.7-2-4.4-1.3-4.9 1.4zm70.4-40.4c.1.9 1.2 2 2.4 2.3 1.9.6 2.3.4 2.8-1.7.4-1.2.1-2.7-.6-3.3-1.8-1.5-5 .5-4.6 2.7zm-31.4 24.1c.4.7 1.2 1.1 1.7.8s.5-1.2.1-1.9-1.2-1.2-1.7-.8c-.5.3-.5 1.2-.1 1.9zM174.9 400c-.5 2.2-.2 3.3 1.7 4.8 1.9 1.6 2.8 1.7 5.4.1 2.6-1.5 3-2.3 2.6-4.8-.4-2.4-1.1-3.2-3.3-3.9-1.5-.5-3.4-.5-4.2 0-.9.7-1.9 2.3-2.2 3.8zm27.5-15.2c-.2 3.9 1.4 5.6 5.8 6.1l3.6.5 1.4-3.4c.8-1.8 1-4.2.5-5.4-2.1-5.4-11-3.7-11.3 2.2zm29-17.6c-1.1 5.4 4.7 9.7 9.4 7 2.4-1.4 3-7.7.9-9.5-3.6-3.6-9.3-2.1-10.3 2.5zm146.5-85.9c-1.7 2.2-.3 6.6 2.5 8.1 3.5 1.7 6.8.8 8.4-2.4 3.4-6.9-6.1-11.9-10.9-5.7z" class="D"></path><path d="M406.2 266.4c-.7 3.6 1.6 6.4 5.8 6.9 2.9.2 3.6 0 4.9-2 1.9-3 2-4.7.6-7.1-2.5-4.5-10.3-2.9-11.3 2.2zm29.1-16.7c-.9 4.1 3 7.3 6.6 5.6 5.1-2.2 4.6-8.2-.7-9.4-3.4-.7-5.2.5-5.9 3.8zM154.9 411.5c0 .8.3 1.6.8 1.7 1.3.3 1.5-1.4.3-2.4-1-.8-1.1-.7-1.1.7zm305.6-175.9c.5.8 1.3 1.2 1.8.9s.7-.9.4-1.3c-.3-.5-1-1-1.8-.9-.6 0-.8.6-.4 1.3zM260 354.8c-.7 2.4 2 6.6 4.7 7.3 4.8 1.4 8.9-4.3 6.4-8.8-2.3-4-9.9-3-11.1 1.5zm92.6-53c-.8 2.9.4 5 3.8 6.6 3 1.4 6.6-.3 7.4-3.6.8-2.6-1.5-7-3.9-7.7-2.5-.6-6.7 2-7.3 4.7zm-60.1 39.4c-.2 2.9.1 3.2 2.6 4.6 1.7.8 3.7.9 5 .1 1.4-.8 2.3-2.5 2.4-4.4.2-2.9-.1-3.2-2.6-4.6-1.7-.8-3.7-.9-5-.1s-2.2 2.5-2.4 4.4zm31.9-18.4c-.2 2.9.1 3.2 2.6 4.6 1.7.8 3.7.9 5 .1 1.4-.8 2.3-2.5 2.4-4.4.2-2.9-.1-3.2-2.6-4.6-1.7-.8-3.7-.9-5-.1s-2.3 2.5-2.4 4.4zM232 400c-1.5 3.8 0 7.2 3.6 7.9 5.3 1.2 9.8-4.5 7.1-9.1-.9-1.6-7.1-3.4-8.7-2.5-.4.2-1.3 1.8-2 3.7zm174.8-101c-1.5 3.8 0 7.2 3.6 7.9 5.3 1.2 9.8-4.5 7.1-9.1-.9-1.6-7.1-3.4-8.7-2.5-.4.2-1.3 1.9-2 3.7zM182.2 428.6c.3.5 1.2.5 1.9.1s1.1-1.2.8-1.7-1.2-.5-1.9-.1c-.6.4-1.1 1.1-.8 1.7zm21.3-12c-.7 2.6 1.4 5.5 4.3 6.1 3.4.7 5.2-.5 5.9-3.8.9-4.2-3-7.3-6.8-5.5-1.7.7-3.2 2.1-3.4 3.2zm57.2-32.4c-1.5 6.9 7.7 10.6 10.9 4.4 1.7-3.5.8-6.8-2.4-8.4-3.4-1.7-7.7.4-8.5 4zm116.6-66.8c-.3 3.7.3 4.8 3.8 6.1a5.9 5.9 0 0 0 7.4-8.5c-2.6-4.7-10.7-2.9-11.2 2.4zm57.7-33.7c.1 3.5 1.1 4.9 4.3 5.5 5.7 1.2 8.4-6.9 3.3-9.7-2.8-1.3-7.7 1.4-7.6 4.2zm24.9-15.5c.3.5 1.2.5 1.9.1s1.1-1.2.8-1.7-1.2-.5-1.9-.1c-.7.5-1.1 1.2-.8 1.7z" class="D"></path><path d="M290.2 368.2c-.8 2.9 1.7 7.3 4.3 7.7 2.6.5 6.4-1.8 7.3-4.2.9-2.3-1.9-7.5-4.4-8.2-2.4-.6-6.6 2-7.2 4.7zm29.4-15.9c-.3 6.4 7.1 9 10.8 3.8 3.6-5.1-2.5-11.7-8-8.5-1.8 1.1-2.7 2.6-2.8 4.7zm29.2-18.4c-.7 2.4 2.5 7.4 4.9 7.9 1.1.2 3-.3 4.3-1s2.7-2.1 3-3.2c1-2.5-1.6-6.8-4.5-7.6-2.7-.8-7.1 1.4-7.7 3.9zm-138.7 110c-.1.7.4 1.2 1.1 1.2.7.1 1.2-.4 1.2-1.1.1-.7-.4-1.2-1.1-1.2s-1.2.5-1.2 1.1zm250.3-144.5c-.1.7.4 1.2 1.1 1.2.7.1 1.2-.4 1.2-1.1.1-.7-.4-1.2-1.1-1.2-.6-.1-1.2.5-1.2 1.1zM232.8 432.9c-.8 2.6 1 6.1 3.4 6.8 2.7.7 6.8-2.1 6.7-4.7-.2-3.3-.8-4.1-4.1-5-3.4-1-5.2-.1-6 2.9zm27.9-15.6c-.4 1.6-.3 3.7.3 4.7 1.4 2.4 6.2 3.7 8.6 2.3 1-.6 2.2-2.3 2.6-3.9s.3-3.7-.3-4.7-2.3-2.2-3.9-2.6-3.7-.3-4.7.3c-1 .5-2.2 2.3-2.6 3.9zm29.1-16.9c-.4 1.6-.3 3.7.3 4.7 1.4 2.4 6.2 3.7 8.6 2.3 1-.6 2.2-2.3 2.6-3.9s.3-3.7-.3-4.7-2.3-2.2-3.9-2.6-3.7-.3-4.7.3-2.2 2.4-2.6 3.9zm29.2-16.8c-.4 1.6-.3 3.7.3 4.7 1.4 2.4 6.2 3.7 8.6 2.3 1-.6 2.2-2.3 2.6-3.9s.3-3.7-.3-4.7-2.3-2.2-3.9-2.6-3.7-.3-4.7.3c-1.1.6-2.2 2.3-2.6 3.9zm29.1-16.8c-.4 1.6-.3 3.7.3 4.7 1.4 2.4 6.2 3.7 8.6 2.3 1-.6 2.2-2.3 2.6-3.9s.3-3.7-.3-4.7-2.3-2.2-3.9-2.6-3.7-.3-4.7.3-2.2 2.3-2.6 3.9zm29.1-16.8c-.4 1.6-.3 3.7.3 4.7 1.4 2.4 6.3 3.7 8.6 2.3 1-.6 2.2-2.3 2.6-3.9s.3-3.7-.3-4.7-2.3-2.2-3.9-2.6-3.7-.3-4.7.3c-1 .5-2.2 2.3-2.6 3.9zm29.2-16.8c-.4 1.6-.3 3.7.3 4.7 1.4 2.4 6.2 3.7 8.6 2.3 1-.6 2.2-2.3 2.6-3.9s.3-3.7-.3-4.7-2.3-2.2-3.9-2.6-3.7-.3-4.7.3c-1.1.5-2.2 2.3-2.6 3.9zm29.1-16.9c-.9 3.3-.5 4.3 2.3 6.1 2.2 1.4 6.7-.7 7.5-3.5.7-2.4-1.5-5.7-4.1-6.3-3.1-.8-4.8.3-5.7 3.7zM237.8 460.7c0 1.3 2 1.6 2.5.3.3-1.3-.6-2.5-1.5-1.9-.5.2-.9.9-1 1.6zm222.8-128.6c1 1 2.5.5 1.9-.6-.2-.4-.9-.6-1.6-.5s-.9.7-.3 1.1zM261.5 449.8c-.7 2.7 2.1 6.8 4.7 6.7 3.7-.2 5.1-1.5 5.3-4.9.2-2.9-.1-3.2-2.6-4.6-3-1.4-6.6-.1-7.4 2.8z" class="D"></path><path d="M290.4 432.5c-.5.6-.8 2.4-.5 3.9 1.1 6.7 11 6.2 11.3-.6.3-6.1-6.9-8.3-10.8-3.3zm29.1-16.8c-.5.6-.8 2.4-.5 3.9 1.1 6.5 10.7 6.2 11.3-.4.3-3.8-.5-5.1-3.9-6-2.9-.7-5.1.1-6.9 2.5zm29.2-16.8c-.5.6-.8 2.4-.5 3.9 1.1 6.7 11 6.2 11.3-.6.3-6.1-7-8.3-10.8-3.3zm29.1-16.8c-.5.6-.8 2.4-.5 3.9 1.1 6.7 11 6.2 11.3-.6.3-6.1-6.9-8.4-10.8-3.3zm29.1-16.9c-.5.6-.8 2.4-.5 3.9 1.1 6.7 11 6.2 11.3-.6.4-6-6.9-8.3-10.8-3.3zm28.5-14.2c-.2 2.9.1 3.2 2.6 4.6 4.7 2.4 9.2-2.2 6.6-6.6-2.9-5.1-8.9-3.7-9.2 2zM265.7 477.5c0 .6.6.9 1.3.4.8-.5 1.2-1.3.9-1.8s-.9-.7-1.3-.4c-.5.3-.9 1.1-.9 1.8zm27-16c-.5.6-.5 1.9 0 2.8 1 1.7 3.1 1.8 4.7.1.4-.6.4-1.8-.1-2.7-1-1.7-3.2-1.8-4.6-.2z" class="D"></path><path d="M320.5 446.5c.1 1 .9 2 1.8 2.2 2.2.6 4.1-2.2 2.6-3.8-1.5-1.9-4.8-.8-4.4 1.6zm28.2-16.3c.1 1 .9 2 1.8 2.2 2.2.6 4.1-2.2 2.6-3.8-1.5-1.9-4.7-.8-4.4 1.6zm28.3-16.3c.1 1 .9 2 1.8 2.2 2.2.6 4.1-2.2 2.6-3.8-1.6-1.9-4.8-.8-4.4 1.6zm28.2-16.3c.1 1 .9 2 1.8 2.2 2.2.6 4.1-2.2 2.6-3.8-1.6-1.9-4.8-.8-4.4 1.6zm28.6-17.5c-.5.6-.5 1.9 0 2.8 1 1.7 3.1 1.8 4.7.1.4-.6.4-1.8-.1-2.7-1-1.8-3.1-1.9-4.6-.2zm27.2-15.4c.3.5 1.2.5 2 .1.7-.4.8-1.1.3-1.4-.6-.4-1.4-.4-2-.1-.5.3-.6.9-.3 1.4z" class="D"></path><linearGradient id="A" gradientUnits="userSpaceOnUse" x1="225.249" y1="205.295" x2="428.821" y2="512.216"><stop offset="0" stop-color="#4c10c1"></stop><stop offset=".827" stop-color="#ede7f9"></stop></linearGradient><path d="M268.7 387.1c2.5 1.4 5.5 1.4 8 0l89.5-51.7c2.5-1.4 4-4.1 4-6.9V225.1c0-2.9-1.5-5.5-4-6.9l-89.5-51.7c-2.5-1.4-5.5-1.4-8 0l-89.5 51.7c-2.5 1.4-4 4.1-4 6.9v103.4c0 2.9 1.5 5.5 4 6.9l89.5 51.7z" fill="url(#A)"></path><path d="M296.7 314.3h-49.1a.94.94 0 0 0-1 1v10.2a.94.94 0 0 0 1 1h49.1a.94.94 0 0 0 1-1v-10.2c0-.5-.4-1-1-1zm.3-21.3h-49.1a.94.94 0 0 0-1 1v12.1a.94.94 0 0 0 1 1H297a.94.94 0 0 0 1-1V294a.94.94 0 0 0-1-1zm-51.1-23.6a.94.94 0 0 1 1 1v13.3a.94.94 0 0 0 1 1H297a.94.94 0 0 0 1-1v-13.3a.94.94 0 0 1 1-1h15.4c.9 0 1.3-1.1.7-1.7l-42-39.5c-.4-.4-1-.4-1.4 0l-42 39.5c-.7.6-.2 1.7.7 1.7h15.5z" fill="#fff"></path><defs><path id="C" d="M202.3 181.5c-.4 1.6-.3 3.7.3 4.7s2.3 2.2 3.9 2.6 3.7.3 4.7-.3 2.2-2.3 2.6-3.9.3-3.7-.3-4.7-2.3-2.2-3.9-2.6-3.7-.3-4.7.3-2.2 2.3-2.6 3.9z"></path></defs></svg>