<?xml version="1.0" encoding="utf-8"?>
<!-- Generator: Adobe Illustrator 26.5.0, SVG Export Plug-In . SVG Version: 6.00 Build 0)  -->
<svg version="1.1" id="Layer_1" xmlns="http://www.w3.org/2000/svg" xmlns:xlink="http://www.w3.org/1999/xlink" x="0px" y="0px"
	 viewBox="0 0 3600 1140.51" style="enable-background:new 0 0 3600 1140.51;" xml:space="preserve">
<style type="text/css">
	.st0{fill:#410099;}
	.st1{fill:#FFFFFF;}
	.st2{fill:#8EFF45;}
	.st3{fill:#38D430;}
	.st4{fill:#4C10C1;}
	.st5{fill:#4BD800;}
	.st6{fill:none;stroke:#FFFFFF;stroke-width:54.4471;stroke-miterlimit:10;}
</style>
<g>
	<g>
		<path class="st6" d="M958.24,358.45c12.12,25.7,18.7,54.14,18.7,83.52v256.58c0,69.98-37.34,134.65-97.94,169.64l-222.2,128.29
			c-60.61,34.99-135.28,34.99-195.88,0l-222.2-128.29c-60.61-34.99-97.94-99.66-97.94-169.64V441.97
			c0-69.98,37.34-134.65,97.94-169.64l222.2-128.29c60.61-34.99,135.28-34.99,195.88,0l155.25,89.63"/>
		<path class="st6" d="M484.08,838.48l-17.03-25.24l-171.7-254.54c-28.08-41.63-17.1-98.15,24.54-126.24
			c15.59-10.51,33.27-15.55,50.76-15.55c29.22,0,57.91,14.05,75.48,40.09l113.58,168.41l-75.23,111.54
			c-9.68,14.35-14.7,30.49-15.41,46.61"/>
		<path class="st6" d="M639.04,831.66l-4.41,6.55c-27.97,41.47-84.25,52.41-125.72,24.45c-41.45-27.97-52.4-84.27-24.43-125.72
			l75.23-111.54l75.14,111.4C654.61,766.08,655.03,802.73,639.04,831.66z"/>
		<path class="st6" d="M1020.28,238.85c0,17.44-5.03,35.05-15.5,50.58L639.04,831.66c15.99-28.93,15.57-65.57-4.19-94.86
			l-75.14-111.4l294.92-437.23c27.97-41.47,84.25-52.41,125.72-24.45C1006.28,181.21,1020.28,209.78,1020.28,238.85z"/>
		<g id="Final_Horizontal_00000064315949052834860250000006488795133311816095_">
			<path class="st1" d="M1322.95,532.14c-51.93-13.31-54.03-19.73-54.03-27.43l0,0c0-7.78,11.59-13.62,26.46-13.62
				c13.47,0,37.06,4.74,51.58,13.82c6.92,4.32,19.53,7.26,27.22,7.26c22.82,0,36.89-15.44,36.89-38.04
				c0-14.59-9.38-27.16-18.74-32.74c-27.94-17.7-60.89-28.48-96.28-28.48c-64.94,0-110.62,41.18-110.62,96.62v0.8
				c0,54.46,46.55,79.56,102.44,93.83c47.91,12.29,48.19,22.1,48.19,28.08v0.8c0,13.76-22.1,17.05-28.88,17.05
				c-22.69,0-43.99-8.07-65.08-23.59h-0.21c-7.45-5.22-15.44-9.61-24.43-9.61c-30.22,0-40.71,17.7-40.71,40.3
				c0,13.06,6.34,25.68,16.52,32.86c32.33,23.21,72.53,36,112.84,36c69.94,0,115.24-38.87,115.24-99.04v-0.81
				C1421.37,572.07,1373.94,545.43,1322.95,532.14z"/>
			<path class="st1" d="M1700.7,642.85h-115.99v-34.48h95.87c21.78,0,39.49-18.17,39.49-39.73c0-21.78-17.72-40.13-39.49-40.13
				h-95.87v-32.67h113.98c21.78,0,39.49-18.17,39.49-39.73c0-21.78-17.72-40.13-39.49-40.13h-156.11
				c-23.95,0-43.17,19.72-43.17,43.67v219.68c0,23.95,19.22,43.37,43.17,43.37h158.12c21.78,0,39.49-18.17,39.49-39.73
				C1740.19,661.21,1722.48,642.85,1700.7,642.85z"/>
			<path class="st1" d="M1958.19,415.99h-97.77c-23.95,0-43.4,19.72-43.4,43.67v222.09c0,23.95,18.7,42.71,42.65,42.71
				c23.95,0,42.65-18.76,42.65-42.71v-49.78h32.89l56.8,71.92c10.85,13.86,23.87,20.46,39.82,20.46c22.66,0,41.01-18.02,41.01-40.24
				c0-13.9-6.31-22.91-12.67-30.98l-34.26-40.99c32.49-18.46,48.85-49.17,48.85-89.71v-0.8c0-27.59-8.83-55.1-26.87-73.15
				C2026.92,427.53,1996.38,415.99,1958.19,415.99z M1902.32,497.66h50.64c24.52,0,40.11,1.86,40.11,27.22l0,0
				c0,17.86-16.18,29.04-38.9,29.04h-51.85V497.66z"/>
			<path class="st1" d="M2378.63,414.53c-20.6,0-35.27,13.6-40.72,27.22l-60.27,155.96l-59.47-153.95
				c-7.08-18.3-22.9-29.22-42.32-29.22c-23.95,0-42.71,18.58-42.71,42.31c0,7.53,2.29,14.03,4.53,19.41l91.34,218.44
				c8.61,20.46,24.88,31.66,45.81,31.66h4.02c20.93,0,37.2-11.2,45.83-31.68l92.09-220.33c1.3-2.95,4.17-10.36,4.17-18.3
				C2420.93,432.75,2402.35,414.53,2378.63,414.53z"/>
			<path class="st1" d="M2535.72,414.53c-23.95,0-41.74,18.76-41.74,42.71v224.51c0,23.95,17.79,42.71,41.74,42.71
				c23.95,0,41.74-18.76,41.74-42.71V457.24C2577.46,433.29,2559.67,414.53,2535.72,414.53z"/>
			<path class="st1" d="M2862.59,415.99h-157.72c-23.95,0-42.11,19.72-42.11,43.67v222.09c0,23.95,18.7,42.71,42.65,42.71
				c23.95,0,42.65-18.76,42.65-42.71v-67.93h96.42c22,0,39.89-18.84,39.89-40.84c0-22-17.9-40.84-39.89-40.84h-96.42v-34.48h114.53
				c22,0,39.89-18.84,39.89-40.84C2902.48,434.83,2884.59,415.99,2862.59,415.99z"/>
			<path class="st1" d="M3190.49,414.13c-15.77,0-28.68,7.74-39.38,23.51l-59.95,85.6l-58.73-84.65
				c-7.01-10.33-18.79-24.05-40.26-24.05c-23.55,0-42.67,18.62-42.67,41.5c0,10.32,3.02,20.09,9.61,29.08l88.41,120.42v76.21
				c0,23.95,18.7,42.71,42.65,42.71c23.95,0,42.65-18.76,42.65-42.71v-77.4l89.04-119.77c6.79-9.5,10.49-19.11,10.49-28.54
				C3232.36,431.75,3214.77,414.13,3190.49,414.13z"/>
		</g>
	</g>
	<g>
		<polygon class="st1" points="3255.25,355.87 3290.39,355.87 3290.39,448.07 3315.3,448.07 3315.3,355.87 3350.44,355.87 
			3350.44,335.85 3255.25,335.85 		"/>
		<polygon class="st1" points="3455.57,335.85 3419.55,418.45 3383.38,335.85 3363.84,335.85 3363.84,448.07 3385.43,448.07 
			3385.43,387.6 3411.44,448.07 3427.36,448.07 3453.08,387.06 3453.2,448.07 3474.95,448.07 3474.95,335.85 		"/>
	</g>
</g>
</svg>
