<?xml version="1.0" encoding="UTF-8"?>
<svg width="64px" height="64px" viewBox="0 0 64 64" version="1.1" xmlns="http://www.w3.org/2000/svg" xmlns:xlink="http://www.w3.org/1999/xlink">
    <title>logo-Apple</title>
    <g id="Servify-Webpage-2021" stroke="none" stroke-width="1" fill="none" fill-rule="evenodd">
        <g id="Artboard" transform="translate(-416.000000, -78.000000)">
            <g id="logo-Apple" transform="translate(416.000000, 78.000000)">
                <polygon id="Rectangle" points="0 0 64 0 64 64 0 64"></polygon>
                <path d="M45.1657738,15.1795498 C50.5546503,15.6150812 54.5850941,17.7414992 57.2763285,21.5652086 C46.191006,28.2262768 48.8181633,42.8293881 59,46.928507 L58.5697979,48.0336595 C56.5933407,52.9988571 54.0457425,57.8300432 49.9651418,61.4675695 L49.9715495,61.4227354 C46.6564381,64.6385641 43.014375,64.3061988 39.5134957,62.8878357 L39.014381,62.6780906 L39.014381,62.6780906 C35.1313143,61.0576576 31.581448,60.9551796 27.4805195,62.6780906 C22.3735819,64.881367 19.6631244,64.2408797 16.587428,61.4227354 C-0.777441305,43.5531388 1.78563904,16.332427 21.5213577,15.3076473 C23.6487144,15.4215117 25.4925501,15.9566745 27.1321831,16.5335875 L27.93535,16.823766 L27.93535,16.823766 L29.4483956,17.3828263 C30.5398407,17.7756585 31.53873,18.0852274 32.4785261,18.1514111 C33.4455961,17.9548307 34.4031113,17.6736606 35.3591041,17.3613465 L36.3148869,17.0406305 L36.3148869,17.0406305 L37.7505627,16.5466073 C40.148146,15.7288435 42.5780485,14.9947939 45.1657738,15.1795498 Z M45.4220819,0 C46.028525,5.45176719 42.9616192,10.0865863 39.3254622,12.7562993 L38.8865896,13.0671588 C36.533482,14.673986 33.9980666,15.4570943 32.0940641,15.1155011 C31.5750403,7.17345815 38.0147797,0.640487335 45.4220819,0 Z" id="Shape" fill="#000000" fill-rule="nonzero"></path>
            </g>
        </g>
    </g>
</svg>