<?xml version="1.0" encoding="UTF-8"?>
<svg width="153px" height="64px" viewBox="0 0 153 64" version="1.1" xmlns="http://www.w3.org/2000/svg" xmlns:xlink="http://www.w3.org/1999/xlink">
    <title>logo-Realme</title>
    <g id="Servify-Webpage-2021" stroke="none" stroke-width="1" fill="none" fill-rule="evenodd">
        <g id="Artboard" transform="translate(-1223.000000, -78.000000)" fill-rule="nonzero">
            <g id="logo-Realme" transform="translate(1223.000000, 78.000000)">
                <rect id="Rectangle" fill="#FFCB00" x="0" y="0" width="153" height="64"></rect>
                <path d="M40.6304627,25.4184152 C43.8720901,25.4184152 46.4598862,26.6508442 48.3938508,29.115702 C49.770338,30.8556017 50.4700524,33.0281748 50.4929939,35.6334214 L33.379816,35.6334214 C33.4279931,37.8497222 34.1334428,39.6655699 35.4961652,41.0809645 C36.8060192,42.4741029 38.6427717,43.2455132 40.5513146,43.2040563 C41.5152901,43.2041546 42.4717139,43.03353 43.3765547,42.7000378 C44.2296565,42.3978548 45.0204061,41.9415497 45.7097006,41.3536868 C46.5384273,40.5600969 47.2426731,39.6452686 47.7985201,38.6402719 L49.8632509,39.7277092 C49.2806153,40.9344462 48.4868842,42.0265266 47.5197814,42.952047 C46.6505497,43.7598504 45.6355732,44.393742 44.5293628,44.8196774 C43.3262698,45.261452 42.0525594,45.4779238 40.7715526,45.4583311 C37.669868,45.4583311 35.2449563,44.4387867 33.4968174,42.3996979 C31.8026389,40.502174 30.8685587,38.0427092 30.8746092,35.4953342 C30.8500012,33.1478898 31.6340326,30.8639064 33.0941949,29.0293975 C34.9731,26.6243774 37.4851893,25.4207167 40.6304627,25.4184152 Z M123.825353,25.4184152 C127.06698,25.4184152 129.654776,26.6508442 131.588741,29.115702 C132.965228,30.8556017 133.664942,33.0281748 133.687884,35.6334214 L116.58503,35.6334214 C116.633207,37.8497222 117.338656,39.6655699 118.701379,41.0809645 C120.011233,42.4741029 121.847985,43.2455132 123.756528,43.2040563 C124.720504,43.2041546 125.676927,43.03353 126.581768,42.7000378 C127.43487,42.3978548 128.22562,41.9415497 128.914914,41.3536868 C129.738888,40.5583783 130.43949,39.6437634 130.99341,38.6402719 L133.058141,39.7277092 C132.473162,40.9330337 131.679717,42.0247202 130.714671,42.952047 C129.84544,43.7598504 128.830463,44.393742 127.724253,44.8196774 C126.52116,45.261452 125.247449,45.4779238 123.966443,45.4583311 C120.867052,45.4583311 118.44214,44.4387867 116.691707,42.3996979 C114.997529,40.502174 114.063449,38.0427092 114.069499,35.4953342 C114.044891,33.1478898 114.828922,30.8639064 116.289085,29.0293975 C118.16799,26.6243774 120.680079,25.4207167 123.825353,25.4184152 Z M21.7072041,25.7463725 L21.7065575,25.7496689 L30.871168,25.7498247 L30.871168,28.1490911 L21.7065575,28.1486689 L21.7072041,45.4583311 L19.3155575,45.4583311 L19.3155575,25.7463725 L21.7072041,25.7463725 Z M62.437462,25.4011543 C63.9098331,25.3789419 65.3649088,25.7216362 66.6736016,26.3988349 C68.001704,27.1220701 69.1416171,28.1485406 70.0012595,29.3953288 L70.0012595,25.8913642 L72.4032298,25.8913642 L72.4032298,44.9577647 L69.9943771,44.9577647 L69.9943771,41.6816441 C69.0606572,42.8569513 67.8873956,43.81856 66.5531589,44.5020767 C62.818402,46.295883 58.3588249,45.4953547 55.4758777,42.5136199 C53.6761996,40.6985757 52.6545144,38.2555271 52.6185783,35.7043837 L52.6196667,35.3710556 C52.5817228,32.8368446 53.5373014,30.3937507 55.2726527,28.5637768 L55.5034075,28.3286046 C57.3066503,26.4253897 59.8202916,25.3641693 62.437462,25.4011543 Z M91.7359933,25.4010014 C92.6381423,25.396727 93.5312725,25.581331 94.3582016,25.9431469 C95.1334974,26.2683442 95.8270078,26.7624232 96.3885203,27.3896111 C97.0063565,28.156333 97.4734577,29.0337665 97.7650075,29.9752953 C98.4721583,28.6033004 99.5168911,27.435223 100.800162,26.5818005 C101.973748,25.8198536 103.342437,25.4157334 104.740357,25.4184152 C105.972292,25.394762 107.182987,25.7422924 108.215987,26.4160958 C109.230854,27.0899226 110.015189,28.0599094 110.463102,29.1951022 C110.951755,30.3872557 111.196082,32.1754859 111.196082,34.5597929 L111.196082,44.9681213 L108.697758,44.9681213 L108.697758,34.5597929 C108.697758,34.3189524 108.69571,34.0869992 108.691625,33.8639333 L108.673271,33.2213975 C108.620312,31.8870038 108.481771,30.9280975 108.260723,30.3446788 C107.975297,29.584213 107.454235,28.9356504 106.774117,28.4943093 C106.021591,28.0179731 105.144563,27.7775845 104.255145,27.8038729 C103.091144,27.7937867 101.954308,28.1566049 101.010076,28.8395275 C100.031445,29.5387851 99.2826756,30.5146857 98.8593149,31.6426992 C98.4246347,32.7481242 98.1958557,34.5568762 98.1729778,37.0689553 L98.1710713,44.9612169 L95.7243652,44.9612169 L95.7243652,35.2122552 C95.7243652,34.9565381 95.7226092,34.7099557 95.7190971,34.4725081 L95.703293,33.7875696 C95.699781,33.6779806 95.69583,33.5706753 95.6914399,33.4656537 L95.6598317,32.8629283 C95.5922252,31.808173 95.4714994,31.0297451 95.2976541,30.5276444 C95.0261393,29.7226925 94.5021967,29.0275285 93.8041654,28.546092 C93.0580807,28.0386766 92.1725275,27.777958 91.2714289,27.8004207 C90.1321027,27.8056112 89.0228473,28.1676902 88.0986258,28.8360753 C87.1151103,29.5199287 86.3558543,30.4810328 85.9168935,31.5978208 C85.4442995,32.7485481 85.2080025,34.5183667 85.2080025,36.9072766 L85.2080025,44.9853822 L82.7647376,44.9853822 L82.7681789,25.8913642 L85.2114437,25.8913642 L85.2114437,29.1847457 C85.9000168,28.1299841 86.7929204,27.2248439 87.8370932,26.5231134 C89.0075396,25.7929118 90.3576801,25.4043914 91.7359933,25.4010014 Z M78.8417489,18.5416689 L78.8417489,44.9681213 L76.3950428,44.9681213 L76.3950428,18.5416689 L78.8417489,18.5416689 Z M62.6301703,27.7762555 C59.9201572,27.7561805 57.4175201,29.2288776 56.1125031,31.6116295 C54.7453199,33.9957195 54.7453199,36.9293574 56.1125031,39.3134473 C56.7596576,40.4963806 57.7100828,41.4843966 58.8654776,42.1753061 C59.9899027,42.8531543 61.2770464,43.2111703 62.5888756,43.2109615 C63.9323816,43.211406 65.2522675,42.8565686 66.4155102,42.1822105 C67.5723391,41.5377176 68.5260387,40.5809795 69.1684847,39.420465 C69.7682932,38.3247298 70.0982847,37.1028229 70.1332613,35.8564864 L70.135467,35.5160473 C70.1887868,33.455573 69.4050094,31.4618499 67.9640584,29.9925562 C66.5721805,28.5396245 64.6384903,27.7361507 62.6301703,27.7762555 Z M40.6614336,27.7693511 C38.8845599,27.7315301 37.1606741,28.3775764 35.8437282,29.5748422 C34.8641281,30.4516964 34.1231191,31.765827 33.6207013,33.5172339 L47.7985201,33.5068774 C47.5501578,32.3747439 47.0645175,31.3085799 46.3738557,30.3792006 C45.7058287,29.5653595 44.8589443,28.9178335 43.8996199,28.4874049 C42.885694,28.0129664 41.7802311,27.7677795 40.6614336,27.7693511 Z M123.856324,27.7693511 C122.07945,27.7315301 120.355564,28.3775764 119.038618,29.5748422 C118.059018,30.4516964 117.318009,31.765827 116.815591,33.5172339 L130.99341,33.5068774 C130.745048,32.3747439 130.259407,31.3085799 129.568746,30.3792006 C128.900176,29.5644784 128.051958,28.9168332 127.091069,28.4874049 C126.078485,28.0126012 124.974058,27.7674387 123.856324,27.7693511 Z" id="Shape" fill="#6C6E75"></path>
            </g>
        </g>
    </g>
</svg>