<?xml version="1.0" encoding="UTF-8"?>
<svg width="600px" height="92px" viewBox="0 0 600 92" version="1.1" xmlns="http://www.w3.org/2000/svg" xmlns:xlink="http://www.w3.org/1999/xlink">
    <title>logo-Samsung</title>
    <g id="Servify-Webpage-2021" stroke="none" stroke-width="1" fill="none" fill-rule="evenodd">
        <path d="M59.8936399,21.2090401 L59.89865,21.764854 L59.89865,27.805054 L38.496208,27.805054 L38.496208,22.489678 C38.496208,17.81859 35.576778,14.717954 30.543278,14.717954 C25.187634,14.717954 23.315172,17.71792 22.711152,20.476278 C22.4259668,21.9690223 22.4533893,23.5046834 22.791688,24.986294 C23.4981901,27.8998851 26.7361299,30.4189445 31.0662454,32.9652824 L31.9772432,33.4926386 L31.9772432,33.4926386 L32.9165763,34.0216033 L32.9165763,34.0216033 L33.8814121,34.5530069 L33.8814121,34.5530069 L34.868918,35.0876794 L34.868918,35.0876794 L36.9006096,36.1701519 L36.9006096,36.1701519 L39.5172874,37.5564178 L39.5172874,37.5564178 L41.1113988,38.4108517 L41.1113988,38.4108517 L42.1782821,38.9916516 L42.1782821,38.9916516 L43.2451746,39.5823617 L43.2451746,39.5823617 L44.3092436,40.1838122 C52.2720921,44.7370433 59.757712,50.2665444 61.388566,58.348332 L61.5181723,59.0404817 L61.5181723,59.0404817 L61.6025388,59.5582916 L61.6025388,59.5582916 L61.6592588,59.9456977 L61.6592588,59.9456977 L61.7150853,60.366574 L61.7150853,60.366574 L61.7947604,61.0601017 L61.7947604,61.0601017 L61.8435746,61.5635671 L61.8435746,61.5635671 L61.8876727,62.0996338 L61.8876727,62.0996338 L61.9259624,62.6680536 L61.9259624,62.6680536 L61.9573515,63.2685783 C61.9619473,63.3713273 61.9662101,63.4754037 61.9701171,63.5808023 L61.9891076,64.2290188 C61.9915004,64.3396855 61.993492,64.451664 61.9950595,64.5649492 L61.999194,65.2602991 C61.999194,65.4972815 61.9964371,65.7394492 61.9920594,65.9867609 L61.9725633,66.7440865 L61.9725633,66.7440865 L61.9396137,67.5320276 L61.9396137,67.5320276 L61.8921183,68.3503361 C61.8829296,68.4892376 61.8730893,68.6293941 61.8625747,68.7708004 L61.7912129,69.6341944 C61.7113951,70.5125031 61.605663,71.435432 61.469102,72.401864 C59.435568,86.717138 46.670612,91.992246 31.167432,91.992246 C15.2013713,91.992246 0.300910684,86.3287793 0.00449807654,67.6563099 L-4.54747351e-13,67.086488 L-4.54747351e-13,60.482536 L23.013162,60.482536 L23.013162,68.797878 C23.013162,73.468966 26.27487,76.569602 31.630514,76.569602 C36.5480422,76.569602 38.6660423,74.4103916 39.6109211,71.9873107 L39.7353148,71.6476846 C39.7938685,71.477206 39.8470802,71.3058721 39.8955023,71.1343266 L39.986124,70.791144 L39.986124,70.791144 C40.388804,69.180424 40.650546,66.522736 39.825052,64.448934 C38.7651982,61.7944821 36.2149028,59.4846876 32.8970631,57.266633 L32.1746128,56.7926476 C31.9300556,56.6350591 31.6818458,56.4778464 31.4302469,56.3209175 L30.6655461,55.8508897 L30.6655461,55.8508897 L29.8820911,55.3820113 L29.8820911,55.3820113 L29.0814625,54.913729 L29.0814625,54.913729 L28.2652411,54.4454901 L28.2652411,54.4454901 L27.4350075,53.9767413 L27.4350075,53.9767413 L26.5923425,53.5069297 L26.5923425,53.5069297 L24.8760406,52.5619058 L24.8760406,52.5619058 L21.8061082,50.8792544 L21.8061082,50.8792544 L20.7704383,50.3051124 L19.5125166,49.598089 L19.5125166,49.598089 L18.675797,49.120006 L18.675797,49.120006 L17.4269193,48.3916049 L17.4269193,48.3916049 L16.6004283,47.8978009 C16.4631794,47.8149207 16.3261989,47.7317442 16.1895149,47.6482616 L15.3731925,47.1436145 L15.3731925,47.1436145 L14.5653288,46.6311511 C8.13983729,42.4989248 2.65538697,37.5711945 1.20804,30.764752 C0.30201,26.456076 0.40268,23.033296 1.0067,19.207836 C2.8268136,8.013332 11.1671218,2.54010544 22.2443653,0.798594976 L23.0802313,0.674947572 C23.7809641,0.577687064 24.4920187,0.494809278 25.2124713,0.425828483 L26.0814664,0.349690997 C26.3725957,0.326514628 26.6651695,0.305530692 26.9591289,0.2867081 L27.8451042,0.23669327 C28.4384465,0.207631291 29.0370942,0.187090343 29.6405743,0.17482173 L30.5493598,0.161942864 L30.5493598,0.161942864 L31.3676906,0.161942864 L31.3676906,0.161942864 L32.4668454,0.175604094 L32.4668454,0.175604094 L33.2110039,0.194666617 L33.2110039,0.194666617 L33.9631094,0.222391152 C34.0890671,0.227766979 34.2153144,0.233528652 34.3418305,0.239688633 L35.1039856,0.281527942 L35.1039856,0.281527942 L35.8715933,0.333524938 C35.9999269,0.343070816 36.128446,0.353064858 36.2571301,0.363519529 L37.0310459,0.431874814 L37.0310459,0.431874814 L37.8079199,0.511883463 C38.5859404,0.597918217 39.3669017,0.702330422 40.1463138,0.827812296 L40.9250433,0.960417104 C50.3892561,2.66165114 59.4026148,7.61462233 59.8788936,20.6680262 L59.8936399,21.2090401 Z M309.344858,0.000888674493 L310.166852,0.000888674493 L310.166852,0.000888674493 L311.277292,0.0148353755 L311.277292,0.0148353755 L312.029181,0.0343044703 L312.029181,0.0343044703 L312.789148,0.0626299479 L312.789148,0.0626299479 L313.556164,0.100428392 L313.556164,0.100428392 L314.329201,0.148316386 L314.329201,0.148316386 L315.107231,0.206910514 L315.107231,0.206910514 L315.889225,0.276827359 L315.889225,0.276827359 L316.674155,0.358683505 C327.2859,1.54710639 338.419173,6.1679942 338.689138,21.0479681 L338.694148,21.603782 L338.694148,27.643982 L317.291706,27.643982 L317.291706,22.328606 C317.291706,17.657518 314.372276,14.556882 309.338776,14.556882 C304.20173,14.556882 302.269327,17.3169507 301.587102,19.9764608 L301.50665,20.315206 L301.50665,20.315206 C301.221465,21.8079503 301.248887,23.3436114 301.587186,24.825222 C302.293688,27.7388131 305.531628,30.2578725 309.861743,32.8042104 L310.772741,33.3315666 L310.772741,33.3315666 L311.712074,33.8605313 L311.712074,33.8605313 L312.67691,34.3919349 L312.67691,34.3919349 L314.165785,35.1954289 L314.165785,35.1954289 L318.312785,37.3953458 L318.312785,37.3953458 L319.374344,37.9628368 L319.374344,37.9628368 L320.44016,38.5389928 L320.44016,38.5389928 L321.507402,39.1246439 L321.507402,39.1246439 L322.573237,39.7206205 C330.732005,44.3314761 338.516969,49.9258771 340.184064,58.18726 L340.286285,58.7238103 L340.286285,58.7238103 L340.398037,59.3972196 L340.398037,59.3972196 L340.48285,59.9908956 L340.48285,59.9908956 L340.564424,60.6596 L340.564424,60.6596 L340.615187,61.1466717 L340.615187,61.1466717 L340.683171,61.9385618 L340.683171,61.9385618 L340.72146,62.5069816 C340.727297,62.6044005 340.732847,62.7031572 340.738086,62.8032463 L340.765615,63.4197303 C340.769522,63.5251289 340.773073,63.6318497 340.776246,63.7398875 L340.790558,64.4038772 L340.790558,64.4038772 L340.794692,65.0992271 C340.794692,65.3362095 340.791935,65.5783772 340.787557,65.8256889 L340.768061,66.5830145 L340.768061,66.5830145 L340.735112,67.3709556 C340.728438,67.5048167 340.721159,67.639943 340.71325,67.7763294 L340.658073,68.6097284 C340.616014,69.1753537 340.563166,69.7609756 340.498073,70.3662631 L340.391067,71.2889024 C340.352215,71.6013377 340.31012,71.918648 340.2646,72.240792 C338.414084,85.2676913 327.676878,90.8084292 314.076423,91.7002441 L313.175604,91.7523385 C312.119958,91.805326 311.048153,91.831174 309.96293,91.831174 C293.996869,91.831174 279.096409,86.1677073 278.799996,67.4952379 L278.795498,66.925416 L278.795498,60.321464 L301.80866,60.321464 L301.80866,68.636806 C301.80866,73.307894 305.070368,76.40853 310.426012,76.40853 C315.686624,76.40853 317.743449,73.9375244 318.587606,71.3158728 L318.691,70.9732546 L318.691,70.9732546 L318.781622,70.630072 L318.781622,70.630072 C319.184302,69.019352 319.446044,66.361664 318.62055,64.287862 C317.484992,61.4438064 314.638469,58.9954034 310.970111,56.6315756 L310.225745,56.1598455 L310.225745,56.1598455 L309.461044,55.6898177 L309.461044,55.6898177 L308.677589,55.2209393 L308.677589,55.2209393 L307.876961,54.752657 L307.876961,54.752657 L307.060739,54.2844181 L307.060739,54.2844181 L305.810628,53.5809309 L305.810628,53.5809309 L303.671539,52.4008338 L303.671539,52.4008338 L300.601606,50.7181824 L300.601606,50.7181824 L299.565936,50.1440404 L298.308015,49.437017 L298.308015,49.437017 L297.054008,48.7176959 L297.054008,48.7176959 L296.222417,48.2305329 L296.222417,48.2305329 L295.395926,47.7367289 L295.395926,47.7367289 L294.575878,47.2358137 L294.575878,47.2358137 L293.763617,46.7273173 C293.628964,46.6419099 293.494691,46.5561672 293.360827,46.4700791 L292.562766,45.9493292 C286.485307,41.9239469 281.390579,37.1265207 280.003538,30.60368 C279.097508,26.295004 279.198178,22.872224 279.802198,19.046764 C281.781572,6.8727409 291.472094,1.46502232 304.007969,0.264756483 L304.876964,0.188618997 C305.168094,0.165442628 305.460668,0.144458692 305.754627,0.1256361 L306.640602,0.0756212705 C307.233944,0.0465592911 307.832592,0.0260183427 308.436072,0.0137497301 L309.344858,0.000888674493 L309.344858,0.000888674493 Z M382.163454,2.879162 L382.163454,66.301262 C382.14332,67.428766 382.183588,68.677074 382.364794,69.603238 L382.415638,69.8438722 C382.425152,69.8852552 382.435196,69.9272509 382.445789,69.9698204 L382.51606,70.231813 C382.528914,70.2765225 382.54235,70.3217281 382.556385,70.367391 L382.64792,70.646544 L382.64792,70.646544 L382.754652,70.934805 C382.792852,71.0322027 382.833722,71.1308074 382.877396,71.2303082 L383.01697,71.5311879 C384.00537,73.5508277 386.17012,75.80451 390.5996,75.80451 C394.462345,75.80451 396.591157,74.0790345 397.726128,72.2946647 L397.911097,71.9885068 C398.115858,71.6313751 398.282558,71.2756969 398.417116,70.934805 L398.524718,70.646544 L398.524718,70.646544 L398.617406,70.367391 L398.617406,70.367391 L398.696009,70.0992118 L398.696009,70.0992118 L398.761355,69.8438722 L398.761355,69.8438722 L398.814272,69.603238 L398.814272,69.603238 C398.95521,68.8828882 398.998709,67.9676612 399.011083,67.0754405 L399.015612,66.321396 L399.015612,66.321396 L399.015612,2.899296 L420.720401,2.899296 L420.720401,64.368398 C420.724149,66.2494393 420.656988,68.1299606 420.518724,70.005918 C419.008674,86.012448 406.364522,91.20702 390.5996,91.20702 C374.814544,91.20702 362.170392,86.012448 360.660342,70.005918 L360.597522,68.9305668 L360.597522,68.9305668 L360.523622,67.314055 L360.523622,67.314055 L360.4919,66.436903 L360.4919,66.436903 L360.468666,65.5853077 L360.468666,65.5853077 L360.459747,65.0582527 L360.459747,65.0582527 L360.45738,64.5822715 C360.45738,64.50808 360.458127,64.4366785 360.459002,64.368398 L360.459002,2.879162 L382.163454,2.879162 Z M568.621116,0.56998307 L569.530458,0.563752 L569.530458,0.563752 L570.440202,0.569935554 C570.893872,0.576142464 571.345678,0.587057105 571.795354,0.602837128 L572.691788,0.640931058 C586.540032,1.33338623 598.170268,6.80247324 599.630788,21.74472 C599.670211,22.1276884 599.702545,22.5138075 599.729002,22.8947048 L599.774439,23.6470562 L599.774439,23.6470562 L599.806357,24.3705984 L599.806357,24.3705984 L599.82691,25.0504469 L599.82691,25.0504469 L599.838255,25.6717172 L599.838255,25.6717172 L599.842543,26.2195249 L599.842543,26.2195249 L599.835189,27.2445114 L599.835189,27.2445114 L599.832917,27.3509731 L599.832917,27.3509731 L599.832128,30.261402 L578.208212,30.261402 L578.205107,25.168151 L578.205107,25.168151 L578.181159,24.4062584 L578.181159,24.4062584 L578.147615,23.8152477 L578.147615,23.8152477 L578.114323,23.3966613 L578.114323,23.3966613 L578.070642,22.9758845 C578.037745,22.6979648 577.996982,22.4285695 577.94647,22.187668 L577.898533,21.9758006 L577.898533,21.9758006 L577.840326,21.7469946 C577.829713,21.7075521 577.818628,21.6674813 577.807052,21.6268209 L577.731524,21.3760948 C577.717895,21.3332314 577.703732,21.289856 577.689013,21.2460073 L577.593859,20.977546 L577.593859,20.977546 L577.484342,20.6995864 L577.484342,20.6995864 L577.359438,20.4139884 L577.359438,20.4139884 L577.218124,20.1226123 L577.218124,20.1226123 L577.059376,19.8273179 C575.996605,17.9486392 573.823314,15.946128 569.369386,15.946128 C564.489637,15.946128 562.305054,18.4690014 561.362777,20.5801598 L561.239213,20.8717727 L561.239213,20.8717727 L561.130897,21.1562699 L561.130897,21.1562699 L561.036952,21.4318797 L561.036952,21.4318797 L560.9565,21.6968304 L560.9565,21.6968304 L560.888665,21.9493504 L560.888665,21.9493504 L560.83257,22.187668 L560.83257,22.187668 C560.570828,23.315172 560.470158,24.845356 560.470158,26.234602 L560.470158,65.4355 C560.470158,66.522736 560.510426,67.730776 560.671498,68.697208 C560.693869,68.8247233 560.721709,68.9572722 560.755403,69.0939017 L560.830714,69.3723192 C560.844606,69.4195348 560.859176,69.4671333 560.87444,69.5150793 L560.97446,69.8066433 C561.806846,72.0696116 564.167357,74.918614 569.449922,74.918614 C574.617649,74.918614 576.988986,72.1921348 577.857265,69.9433721 L577.964242,69.6466493 C577.997008,69.5488728 578.026918,69.4523214 578.054086,69.3572761 L578.127479,69.0769403 C578.149277,68.9851889 578.168447,68.8952249 578.185102,68.8073298 L578.208212,68.677074 C578.366767,67.8490633 578.402002,66.8206563 578.408333,65.8616172 L578.409552,52.972554 L569.610994,52.972554 L569.610994,40.489474 L599.9932,40.489474 L599.992167,63.8940451 L599.992167,63.8940451 L599.981762,64.6905221 L599.981762,64.6905221 L599.95547,65.5076511 L599.95547,65.5076511 L599.907574,66.4127892 L599.907574,66.4127892 L599.854033,67.1899182 L599.854033,67.1899182 L599.724089,68.7565211 C599.713532,68.874608 599.70257,68.9957164 599.69119,69.120022 C598.338185,84.1190466 585.796217,89.8588796 571.346002,90.2940678 L570.440463,90.3143957 C570.137844,90.3188932 569.834481,90.321124 569.530458,90.321124 C569.226435,90.321124 568.92308,90.3188932 568.620477,90.3143957 L567.715006,90.2940678 C553.266245,89.8588796 540.742059,84.1190466 539.369726,69.120022 L539.236605,67.4732935 L539.236605,67.4732935 L539.14742,66.1745702 L539.14742,66.1745702 L539.111899,65.5076511 L539.111899,65.5076511 L539.087906,64.8902371 L539.087906,64.8902371 L539.073832,64.293912 L539.073832,64.293912 L539.067716,63.482502 L539.067716,63.482502 L539.067716,27.402374 C539.067716,27.0963372 539.07577,26.7435895 539.089944,26.3637817 L539.125881,25.5739085 L539.125881,25.5739085 L539.174704,24.7468098 L539.174704,24.7468098 L539.232976,23.9174202 L539.232976,23.9174202 L539.297261,23.1206746 C539.308286,22.9925448 539.319418,22.8672308 539.330586,22.7454603 L539.397448,22.0631832 C539.408473,21.9584983 539.41939,21.8588127 539.430128,21.764854 C541.228094,6.68086388 552.810782,1.22148146 566.82008,0.620657932 L567.717515,0.588859903 C568.017712,0.580429395 568.318936,0.574152419 568.621116,0.56998307 L568.621116,0.56998307 Z M129.96497,2.879162 L145.77016,88.650002 L122.71673,88.650002 L111.300752,10.832092 L110.817536,10.832092 L99.079414,88.650002 L75.90518,88.650002 L91.81104,2.899296 L129.96497,2.879162 Z M256.325954,2.879162 L258.21855,88.650002 L236.77584,88.650002 L236.232222,11.57705 L235.76914,11.57705 L221.433732,88.650002 L199.668878,88.650002 L185.353604,11.556916 L184.870388,11.556916 L184.346904,88.650002 L162.88406,88.650002 L164.776656,2.899296 L199.749414,2.899296 L210.29963,68.4556 L210.80298,68.4556 L221.37333,2.899296 L256.325954,2.879162 Z M476.430842,2.899296 L496.162162,70.207258 L496.625244,70.207258 L495.457472,2.899296 L516.698842,2.899296 L516.698842,87.743972 L486.155564,87.743972 L464.99473,18.100466 L464.531648,18.100466 L465.69942,87.743972 L444.619122,87.743972 L444.619122,2.899296 L476.430842,2.899296 Z" id="logo-Samsung" fill="#034EA2" fill-rule="nonzero"></path>
    </g>
</svg>