<svg xmlns="http://www.w3.org/2000/svg" width="72" height="72" viewBox="0 0 72 72" fill="none"><path d="M33 70.2679C34.8564 71.3397 37.1436 71.3397 39 70.2679L64.1769 55.7321C66.0333 54.6603 67.1769 52.6795 67.1769 50.5359V21.4641C67.1769 19.3205 66.0333 17.3397 64.1769 16.2679L39 1.73205C37.1436 0.660253 34.8564 0.660254 33 1.73205L7.82309 16.2679C5.96668 17.3397 4.82309 19.3205 4.82309 21.4641V50.5359C4.82309 52.6795 5.96668 54.6603 7.82309 55.7321L33 70.2679Z" fill="#EDE7F9"></path><path d="M17.9046 32.4418C18.8025 31.5439 18.2466 30.5605 17.2632 30.5177C15.6385 30.4322 14.6978 28.6792 16.0233 27.2254C17.477 25.9 19.2301 26.8406 19.3156 28.4654C19.3583 29.4488 20.3417 30.0047 21.2396 29.1068L23.4203 26.9261C24.0616 26.2848 25.1305 26.2848 25.7719 26.9261L27.9525 29.1068C28.8504 30.0047 29.8338 29.4488 29.8766 28.4654C29.9621 26.8406 31.7151 25.9 33.1689 27.2682C34.4944 28.7219 33.5965 30.475 31.9289 30.5605C30.9455 30.6033 30.3897 31.5867 31.2876 32.4846L33.511 34.708C34.1523 35.3493 34.1523 36.4182 33.511 37.0596L33.4682 37.1024L31.8862 38.6844C31.7151 38.1713 31.4158 37.6582 31.031 37.2734C29.6628 35.9052 27.6105 35.9479 26.114 37.3589L26.0712 37.4017L26.0284 37.4444C24.6175 38.9409 24.6175 41.036 25.9429 42.3615C26.3277 42.7463 26.7981 43.0456 27.3539 43.2166L25.8147 44.7559C25.1305 45.3972 24.0616 45.3972 23.4203 44.7559L21.2396 42.5753C20.3417 41.6774 19.3583 42.2332 19.3156 43.2166C19.2301 44.7986 17.477 45.6965 16.0233 44.3711C14.6978 42.9173 15.5957 41.1643 17.2205 41.0788C18.2039 41.036 18.7597 40.0526 17.8618 39.1547L15.6812 36.9741C15.0399 36.3327 15.0399 35.2638 15.6812 34.6224L17.9046 32.4418ZM26.9691 23.3773C26.3277 24.0187 26.285 25.1303 26.9691 25.7717L28.5084 27.311C28.6794 26.7979 28.9787 26.2848 29.3635 25.9C30.7317 24.5317 32.7841 24.5745 34.2806 25.9855L34.3233 26.0282L34.3661 26.071C35.7771 27.5675 35.7771 29.6626 34.4516 30.9881C34.0668 31.3729 33.5965 31.6722 33.0406 31.8432L34.6226 33.4252L34.6654 33.468C35.3068 34.1094 36.3757 34.1094 37.017 33.468L39.2404 31.2446C40.1383 30.3467 41.1217 30.9026 41.1645 31.886C41.25 33.5108 43.003 34.4514 44.4568 33.1259C45.7823 31.6722 44.8844 29.9191 43.2596 29.8336C42.2762 29.7909 41.7203 28.8075 42.6182 27.9096L44.7988 25.7289C45.4402 25.0876 45.4402 24.0187 44.7988 23.3773L42.6182 21.1967C41.7203 20.2988 42.2762 19.3154 43.2596 19.2726C44.8844 19.1871 45.825 17.4341 44.4995 15.9803C43.0458 14.6548 41.2928 15.5527 41.2072 17.2203C41.1645 18.2037 40.1811 18.7595 39.2832 17.8616L37.1026 15.681C36.4612 15.0397 35.3923 15.0397 34.7509 15.681L32.5703 17.8616C31.6724 18.7595 30.7317 18.2464 30.6462 17.2203C30.5607 15.5955 28.8077 14.6548 27.3539 16.0231C26.0284 17.4768 26.9263 19.2299 28.5511 19.3154C29.5345 19.3581 30.0904 20.3415 29.1925 21.2394L26.9691 23.3773ZM28.4656 52.3667C26.8408 52.4522 25.9002 54.2052 27.2256 55.659C28.6794 56.9844 30.4324 56.0865 30.5179 54.419C30.5607 53.4356 31.5441 52.8797 32.442 53.7776L34.6226 55.9583C35.264 56.5996 36.3329 56.5996 36.9743 55.9583L39.1549 53.7776C40.0528 52.8797 40.9935 53.3928 41.079 54.419C41.1645 56.0438 42.9175 56.9844 44.3713 55.6162C45.6967 54.1625 44.7988 52.4094 43.1741 52.3239C42.1907 52.2811 41.6348 51.2977 42.5327 50.3998L44.7133 48.2192C45.3547 47.5779 45.3547 46.4662 44.7133 45.8248L43.1741 44.2856C43.003 44.7986 42.7037 45.3117 42.3189 45.6965C40.9507 47.0648 38.8984 47.022 37.4019 45.611L37.3591 45.5683L37.3163 45.5255C35.9054 44.029 35.9054 41.9339 37.2308 40.6084C37.6156 40.2236 38.086 39.9243 38.6418 39.7533L37.0598 38.1713L37.017 38.1285C36.3757 37.4872 35.3068 37.4872 34.6654 38.1285L32.442 40.3519C31.5441 41.2498 30.5607 40.694 30.5179 39.7105C30.4324 38.0858 28.6794 37.1451 27.2256 38.4706C25.9002 39.9243 26.7981 41.6774 28.4228 41.7629C29.4063 41.8056 29.9621 42.7891 29.0642 43.687L26.8836 45.8676C26.2422 46.5089 26.2422 47.5779 26.8836 48.2192L29.0642 50.3998C30.0049 51.3405 29.449 52.3239 28.4656 52.3667Z" fill="#4C10C1"></path><path d="M45.7395 29.2772C47.1077 30.6455 47.0649 32.6978 45.654 34.1943L45.6112 34.2371L45.5684 34.2798C44.0719 35.6908 41.9768 35.6908 40.6514 34.3653C40.2665 33.9805 39.9672 33.5102 39.7962 32.9544L38.2142 34.5364L38.1714 34.5791C37.5301 35.2205 37.5301 36.2894 38.1714 36.9308L40.3948 39.1541C41.2927 40.052 40.7369 41.0355 39.7535 41.0782C38.1287 41.1637 37.188 42.9168 38.5135 44.3705C39.9672 45.696 41.7203 44.7981 41.8058 43.1733C41.8486 42.1899 42.832 41.6341 43.7299 42.532L45.9105 44.7126C46.5519 45.3539 47.6208 45.3539 48.2621 44.7126L50.4428 42.532C51.3407 41.6341 52.3241 42.1899 52.3668 43.1733C52.4523 44.7981 54.2054 45.7387 55.6591 44.4133C56.9846 42.9595 56.0867 41.2065 54.4192 41.121C53.4358 41.0782 52.8799 40.0948 53.7778 39.1969L55.9584 37.0163C56.5998 36.3749 56.5998 35.306 55.9584 34.6646L53.7778 32.484C52.8799 31.5861 53.393 30.6455 54.4192 30.56C56.0439 30.4744 56.9846 28.7214 55.6164 27.2677C54.1626 25.9422 52.4096 26.8401 52.3241 28.4649C52.2813 29.4483 51.2979 30.0041 50.4 29.1062L48.2194 26.9256C47.578 26.2842 46.4663 26.2842 45.825 26.9256L44.2857 28.4649C44.8843 28.5931 45.3546 28.8924 45.7395 29.2772Z" fill="#BF9FFF"></path></svg>