<svg xmlns="http://www.w3.org/2000/svg" width="72" height="72" viewBox="0 0 72 72" fill="none"><path d="M33 70.2679C34.8564 71.3397 37.1436 71.3397 39 70.2679L64.1769 55.7321C66.0333 54.6603 67.1769 52.6795 67.1769 50.5359V21.4641C67.1769 19.3205 66.0333 17.3397 64.1769 16.2679L39 1.73205C37.1436 0.660253 34.8564 0.660254 33 1.73205L7.82309 16.2679C5.96668 17.3397 4.82309 19.3205 4.82309 21.4641V50.5359C4.82309 52.6795 5.96668 54.6603 7.82309 55.7321L33 70.2679Z" fill="#EDE7F9"></path><path d="M19.9199 29.8674C22.2951 29.8674 24.2206 27.9419 24.2206 25.5667C24.2206 23.1915 22.2951 21.266 19.9199 21.266C17.5446 21.266 15.6191 23.1915 15.6191 25.5667C15.6191 27.9419 17.5446 29.8674 19.9199 29.8674Z" fill="#BF9FFF"></path><path d="M36.0001 24C29.9347 24 25 28.9344 25 34.9998C25 41.0652 29.9347 46 36.0001 46C42.0655 46 47 41.0652 47 34.9998C47 28.9344 42.0655 24 36.0001 24Z" fill="#4C10C1"></path><path d="M36.0906 22.3402C28.9867 22.3402 23.207 28.1197 23.207 35.2237C23.207 42.3277 28.9867 48.1074 36.0906 48.1074C43.1946 48.1074 48.9743 42.3277 48.9743 35.2237C48.9743 28.1197 43.1946 22.3402 36.0906 22.3402ZM36.0906 45.1502C30.6173 45.1502 26.1642 40.6973 26.1642 35.2237C26.1642 29.7503 30.6173 25.2974 36.0906 25.2974C41.564 25.2974 46.017 29.7503 46.017 35.2237C46.017 40.6973 41.564 45.1502 36.0906 45.1502Z" fill="#4C10C1"></path><path d="M52.51 29.856C54.8792 29.6876 56.6634 27.6305 56.495 25.2612C56.3266 22.8919 54.2695 21.1078 51.9002 21.2761C49.531 21.4445 47.7469 23.5017 47.9152 25.8709C48.0836 28.2402 50.1408 30.0244 52.51 29.856Z" fill="#BF9FFF"></path><path d="M36.1396 49.2791C33.7643 49.2791 31.8389 51.2045 31.8389 53.5797C31.8389 55.955 33.7643 57.8804 36.1396 57.8804C38.5148 57.8804 40.4403 55.955 40.4403 53.5797C40.4403 51.2045 38.5148 49.2791 36.1396 49.2791Z" fill="#BF9FFF"></path><path d="M20.5842 34.8742C20.5842 33.994 20.6617 33.1323 20.8033 32.2917C20.5139 32.3294 20.2194 32.3509 19.9198 32.3509C19.1967 32.3509 18.5005 32.2366 17.8471 32.0271C17.7028 32.9554 17.627 33.9061 17.627 34.8742C17.627 42.7229 22.5517 49.4391 29.4715 52.1065C29.6917 51.1133 30.1293 50.2025 30.7324 49.4258C24.8147 47.2397 20.5842 41.542 20.5842 34.8742Z" fill="#4C10C1"></path><path d="M26.1804 22.9575C28.8697 20.7169 32.3253 19.3665 36.0911 19.3665C39.8366 19.3665 43.2761 20.7015 45.9591 22.9205C46.3518 21.9955 46.9445 21.1761 47.6822 20.5153C44.5108 17.95 40.4783 16.4093 36.0911 16.4093C31.6901 16.4093 27.6457 17.9594 24.4697 20.539C25.2046 21.2044 25.7926 22.0287 26.1804 22.9575Z" fill="#4C10C1"></path><path d="M52.2052 32.3494C51.9259 32.3494 51.6511 32.3305 51.3806 32.2977C51.5214 33.1358 51.5984 33.9951 51.5984 34.8726C51.5984 41.5404 47.3678 47.2381 41.4502 49.4243C42.0532 50.201 42.4909 51.1117 42.7111 52.1049C49.6309 49.4375 54.5556 42.7213 54.5556 34.8726C54.5556 33.8981 54.4784 32.9413 54.3322 32.0072C53.663 32.2281 52.9484 32.3494 52.2052 32.3494Z" fill="#4C10C1"></path></svg>